NotoSerifDisplay-CondensedLightItalic.ufo
<glyph name="period" format="2">
  <advance width="147"/>
  <unicode hex="002E"/>
  <outline>
    <contour>
      <point x="29" y="-5" type="curve" smooth="yes"/>
      <point x="49" y="-5"/>
      <point x="57" y="22"/>
      <point x="57" y="44" type="curve" smooth="yes"/>
      <point x="57" y="59"/>
      <point x="51" y="72"/>
      <point x="37" y="72" type="curve" smooth="yes"/>
      <point x="18" y="72"/>
      <point x="10" y="46"/>
      <point x="10" y="23" type="curve" smooth="yes"/>
      <point x="10" y="4"/>
      <point x="18" y="-5"/>
    </contour>
  </outline>
</glyph>
<glyph name="zero" format="2">
  <advance width="424"/>
  <unicode hex="0030"/>
  <outline>
    <contour>
      <point x="168" y="-11" type="curve" smooth="yes"/>
      <point x="350" y="-11"/>
      <point x="416" y="324"/>
      <point x="416" y="508" type="curve" smooth="yes"/>
      <point x="416" y="668"/>
      <point x="366" y="723"/>
      <point x="295" y="723" type="curve" smooth="yes"/>
      <point x="117" y="723"/>
      <point x="43" y="382"/>
      <point x="43" y="198" type="curve" smooth="yes"/>
      <point x="43" y="58"/>
      <point x="86" y="-11"/>
    </contour>
    <contour>
      <point x="170" y="-1" type="curve" smooth="yes"/>
      <point x="105" y="-1"/>
      <point x="72" y="57"/>
      <point x="72" y="196" type="curve" smooth="yes"/>
      <point x="72" y="387"/>
      <point x="135" y="713"/>
      <point x="292" y="713" type="curve" smooth="yes"/>
      <point x="349" y="713"/>
      <point x="387" y="671"/>
      <point x="387" y="520" type="curve" smooth="yes"/>
      <point x="387" y="324"/>
      <point x="323" y="-1"/>
    </contour>
  </outline>
</glyph>
<glyph name="J" format="2">
  <advance width="245"/>
  <unicode hex="004A"/>
  <anchor x="-66" y="-240" name="bottom"/>
  <anchor x="216" y="714" name="top"/>
  <anchor x="307" y="714" name="topright"/>
  <outline>
    <contour>
      <point x="-71" y="-240" type="curve" smooth="yes"/>
      <point x="9" y="-240"/>
      <point x="42" y="-188"/>
      <point x="77" y="-25" type="curve" smooth="yes"/>
      <point x="223" y="660" type="line" smooth="yes"/>
      <point x="230" y="693"/>
      <point x="243" y="704"/>
      <point x="281" y="704" type="curve" smooth="yes"/>
      <point x="304" y="704" type="line"/>
      <point x="306" y="714" type="line"/>
      <point x="126" y="714" type="line"/>
      <point x="124" y="704" type="line"/>
      <point x="154" y="704" type="line" smooth="yes"/>
      <point x="181" y="704"/>
      <point x="195" y="697"/>
      <point x="195" y="679" type="curve" smooth="yes"/>
      <point x="195" y="673"/>
      <point x="194" y="668"/>
      <point x="193" y="661" type="curve" smooth="yes"/>
      <point x="43" y="-53" type="line" smooth="yes"/>
      <point x="16" y="-181"/>
      <point x="-17" y="-226"/>
      <point x="-71" y="-226" type="curve" smooth="yes"/>
      <point x="-90" y="-226"/>
      <point x="-107" y="-223"/>
      <point x="-123" y="-217" type="curve"/>
      <point x="-128" y="-229" type="line"/>
      <point x="-110" y="-236"/>
      <point x="-94" y="-240"/>
    </contour>
  </outline>
</glyph>
<glyph name="bracketleft" format="2">
  <advance width="220"/>
  <unicode hex="005B"/>
  <outline>
    <contour>
      <point x="-23" y="-128" type="line"/>
      <point x="106" y="-128" type="line"/>
      <point x="108" y="-118" type="line"/>
      <point x="56" y="-118" type="line" smooth="yes"/>
      <point x="24" y="-118"/>
      <point x="12" y="-116"/>
      <point x="12" y="-99" type="curve" smooth="yes"/>
      <point x="12" y="-92"/>
      <point x="13" y="-87"/>
      <point x="15" y="-79" type="curve" smooth="yes"/>
      <point x="177" y="684" type="line" smooth="yes"/>
      <point x="190" y="747"/>
      <point x="200" y="750"/>
      <point x="243" y="750" type="curve" smooth="yes"/>
      <point x="292" y="750" type="line"/>
      <point x="294" y="760" type="line"/>
      <point x="165" y="760" type="line"/>
    </contour>
  </outline>
</glyph>
<glyph name="f" format="2">
  <advance width="190"/>
  <unicode hex="0066"/>
  <anchor x="-87" y="-240" name="bottom"/>
  <anchor x="266" y="770" name="top"/>
  <anchor x="381" y="770" name="topright"/>
  <outline>
    <contour>
      <point x="-88" y="-240" type="curve" smooth="yes"/>
      <point x="-27" y="-240"/>
      <point x="0" y="-206"/>
      <point x="34" y="-45" type="curve" smooth="yes"/>
      <point x="155" y="526" type="line"/>
      <point x="227" y="526" type="line"/>
      <point x="229" y="536" type="line"/>
      <point x="157" y="536" type="line"/>
      <point x="181" y="646" type="line" smooth="yes"/>
      <point x="195" y="708"/>
      <point x="216" y="760"/>
      <point x="264" y="760" type="curve" smooth="yes"/>
      <point x="298" y="760"/>
      <point x="310" y="734"/>
      <point x="307" y="658" type="curve"/>
      <point x="323" y="658"/>
      <point x="334" y="670"/>
      <point x="334" y="697" type="curve" smooth="yes"/>
      <point x="334" y="737"/>
      <point x="312" y="770"/>
      <point x="264" y="770" type="curve" smooth="yes"/>
      <point x="202" y="770"/>
      <point x="169" y="715"/>
      <point x="150" y="630" type="curve" smooth="yes"/>
      <point x="129" y="536" type="line"/>
      <point x="60" y="531" type="line"/>
      <point x="59" y="526" type="line"/>
      <point x="127" y="526" type="line"/>
      <point x="6" y="-44" type="line" smooth="yes"/>
      <point x="-25" y="-190"/>
      <point x="-47" y="-228"/>
      <point x="-93" y="-228" type="curve" smooth="yes"/>
      <point x="-104" y="-228"/>
      <point x="-117" y="-226"/>
      <point x="-128" y="-222" type="curve"/>
      <point x="-131" y="-232" type="line"/>
      <point x="-118" y="-237"/>
      <point x="-106" y="-240"/>
    </contour>
  </outline>
</glyph>
<glyph name="i" format="2">
  <advance width="201"/>
  <unicode hex="0069"/>
  <anchor x="59" y="0" name="bottom"/>
  <anchor x="216" y="742" name="top"/>
  <anchor x="292" y="742" name="topright"/>
  <outline>
    <contour>
      <point x="108" y="-10" type="curve" smooth="yes"/>
      <point x="136" y="-10"/>
      <point x="154" y="5"/>
      <point x="176" y="31" type="curve"/>
      <point x="169" y="38" type="line"/>
      <point x="149" y="12"/>
      <point x="132" y="0"/>
      <point x="113" y="0" type="curve" smooth="yes"/>
      <point x="88" y="0"/>
      <point x="80" y="22"/>
      <point x="80" y="60" type="curve" smooth="yes"/>
      <point x="80" y="74"/>
      <point x="81" y="99"/>
      <point x="89" y="139" type="curve" smooth="yes"/>
      <point x="173" y="536" type="line"/>
      <point x="73" y="536" type="line"/>
      <point x="70" y="526" type="line"/>
      <point x="85" y="526" type="line" smooth="yes"/>
      <point x="125" y="526"/>
      <point x="136" y="517"/>
      <point x="136" y="500" type="curve" smooth="yes"/>
      <point x="136" y="495"/>
      <point x="135" y="487"/>
      <point x="133" y="478" type="curve" smooth="yes"/>
      <point x="70" y="181" type="line" smooth="yes"/>
      <point x="62" y="143"/>
      <point x="53" y="98"/>
      <point x="53" y="63" type="curve" smooth="yes"/>
      <point x="53" y="16"/>
      <point x="70" y="-10"/>
    </contour>
    <contour>
      <point x="185" y="681" type="curve" smooth="yes"/>
      <point x="201" y="681"/>
      <point x="211" y="695"/>
      <point x="211" y="715" type="curve" smooth="yes"/>
      <point x="211" y="733"/>
      <point x="202" y="741"/>
      <point x="190" y="741" type="curve" smooth="yes"/>
      <point x="173" y="741"/>
      <point x="163" y="726"/>
      <point x="163" y="708" type="curve" smooth="yes"/>
      <point x="163" y="689"/>
      <point x="173" y="681"/>
    </contour>
  </outline>
</glyph>
<glyph name="l" format="2">
  <advance width="204"/>
  <unicode hex="006C"/>
  <anchor x="54" y="0" name="bottom"/>
  <anchor x="168" y="268" name="center"/>
  <anchor x="216" y="760" name="top"/>
  <anchor x="291" y="760" name="topright"/>
  <outline>
    <contour>
      <point x="106" y="-10" type="curve" smooth="yes"/>
      <point x="138" y="-10"/>
      <point x="158" y="8"/>
      <point x="179" y="33" type="curve"/>
      <point x="174" y="39" type="line"/>
      <point x="154" y="14"/>
      <point x="132" y="0"/>
      <point x="112" y="0" type="curve" smooth="yes"/>
      <point x="83" y="0"/>
      <point x="75" y="27"/>
      <point x="75" y="66" type="curve" smooth="yes"/>
      <point x="75" y="91"/>
      <point x="80" y="117"/>
      <point x="88" y="154" type="curve" smooth="yes"/>
      <point x="216" y="760" type="line"/>
      <point x="115" y="760" type="line"/>
      <point x="112" y="750" type="line"/>
      <point x="137" y="750" type="line" smooth="yes"/>
      <point x="171" y="750"/>
      <point x="176" y="739"/>
      <point x="176" y="723" type="curve" smooth="yes"/>
      <point x="176" y="720"/>
      <point x="176" y="718"/>
      <point x="174" y="707" type="curve" smooth="yes"/>
      <point x="62" y="164" type="line" smooth="yes"/>
      <point x="55" y="132"/>
      <point x="47" y="96"/>
      <point x="47" y="66" type="curve" smooth="yes"/>
      <point x="47" y="23"/>
      <point x="60" y="-10"/>
    </contour>
  </outline>
</glyph>
<glyph name="m" format="2">
  <advance width="609"/>
  <unicode hex="006D"/>
  <anchor x="262" y="0" name="bottom"/>
  <anchor x="366" y="536" name="top"/>
  <anchor x="674" y="536" name="topright"/>
  <outline>
    <contour>
      <point x="517" y="-10" type="curve" smooth="yes"/>
      <point x="539" y="-10"/>
      <point x="558" y="-1"/>
      <point x="584" y="31" type="curve"/>
      <point x="578" y="38" type="line"/>
      <point x="556" y="11"/>
      <point x="541" y="0"/>
      <point x="524" y="0" type="curve" smooth="yes"/>
      <point x="494" y="0"/>
      <point x="489" y="31"/>
      <point x="489" y="66" type="curve" smooth="yes"/>
      <point x="489" y="85"/>
      <point x="492" y="114"/>
      <point x="497" y="138" type="curve" smooth="yes"/>
      <point x="539" y="332" type="line" smooth="yes"/>
      <point x="546" y="366"/>
      <point x="559" y="416"/>
      <point x="559" y="455" type="curve" smooth="yes"/>
      <point x="559" y="500"/>
      <point x="542" y="543"/>
      <point x="486" y="543" type="curve" smooth="yes"/>
      <point x="438" y="543"/>
      <point x="397" y="506"/>
      <point x="348" y="405" type="curve"/>
      <point x="346" y="405" type="line"/>
      <point x="349" y="420"/>
      <point x="350" y="434"/>
      <point x="350" y="447" type="curve" smooth="yes"/>
      <point x="350" y="500"/>
      <point x="333" y="543"/>
      <point x="278" y="543" type="curve" smooth="yes"/>
      <point x="230" y="543"/>
      <point x="184" y="505"/>
      <point x="137" y="405" type="curve"/>
      <point x="135" y="405" type="line"/>
      <point x="163" y="536" type="line"/>
      <point x="72" y="536" type="line"/>
      <point x="70" y="526" type="line"/>
      <point x="81" y="526" type="line" smooth="yes"/>
      <point x="115" y="526"/>
      <point x="124" y="521"/>
      <point x="124" y="497" type="curve" smooth="yes"/>
      <point x="124" y="488"/>
      <point x="121" y="472"/>
      <point x="117" y="453" type="curve" smooth="yes"/>
      <point x="21" y="0" type="line"/>
      <point x="49" y="0" type="line"/>
      <point x="124" y="351" type="line" smooth="yes"/>
      <point x="134" y="400"/>
      <point x="201" y="528"/>
      <point x="273" y="528" type="curve" smooth="yes"/>
      <point x="311" y="528"/>
      <point x="323" y="491"/>
      <point x="323" y="456" type="curve" smooth="yes"/>
      <point x="323" y="421"/>
      <point x="312" y="379"/>
      <point x="302" y="332" type="curve" smooth="yes"/>
      <point x="273" y="197" type="line" smooth="yes"/>
      <point x="257" y="121"/>
      <point x="249" y="69"/>
      <point x="247" y="0" type="curve"/>
      <point x="275" y="0" type="line"/>
      <point x="278" y="71"/>
      <point x="284" y="119"/>
      <point x="301" y="196" type="curve" smooth="yes"/>
      <point x="335" y="350" type="line" smooth="yes"/>
      <point x="344" y="391"/>
      <point x="407" y="528"/>
      <point x="482" y="528" type="curve" smooth="yes"/>
      <point x="518" y="528"/>
      <point x="531" y="496"/>
      <point x="531" y="457" type="curve" smooth="yes"/>
      <point x="531" y="422"/>
      <point x="521" y="377"/>
      <point x="511" y="332" type="curve" smooth="yes"/>
      <point x="477" y="176" type="line" smooth="yes"/>
      <point x="471" y="148"/>
      <point x="461" y="103"/>
      <point x="461" y="67" type="curve" smooth="yes"/>
      <point x="461" y="24"/>
      <point x="475" y="-10"/>
    </contour>
  </outline>
</glyph>
<glyph name="y" format="2">
  <advance width="370"/>
  <unicode hex="0079"/>
  <anchor x="40" y="-240" name="bottom"/>
  <anchor x="215" y="536" name="top"/>
  <anchor x="398" y="536" name="topright"/>
  <outline>
    <contour>
      <point x="-68" y="-240" type="curve" smooth="yes"/>
      <point x="52" y="-240"/>
      <point x="97" y="-170"/>
      <point x="208" y="48" type="curve" smooth="yes"/>
      <point x="286" y="202"/>
      <point x="355" y="344"/>
      <point x="355" y="475" type="curve" smooth="yes"/>
      <point x="355" y="527"/>
      <point x="340" y="543"/>
      <point x="323" y="543" type="curve" smooth="yes"/>
      <point x="307" y="543"/>
      <point x="297" y="533"/>
      <point x="297" y="519" type="curve"/>
      <point x="317" y="519"/>
      <point x="333" y="510"/>
      <point x="333" y="466" type="curve" smooth="yes"/>
      <point x="333" y="303"/>
      <point x="254" y="156"/>
      <point x="194" y="42" type="curve"/>
      <point x="191" y="42" type="line"/>
      <point x="184" y="88"/>
      <point x="177" y="127"/>
      <point x="168" y="172" type="curve" smooth="yes"/>
      <point x="96" y="536" type="line"/>
      <point x="28" y="536" type="line"/>
      <point x="26" y="526" type="line"/>
      <point x="36" y="526" type="line" smooth="yes"/>
      <point x="63" y="526"/>
      <point x="70" y="524"/>
      <point x="77" y="486" type="curve" smooth="yes"/>
      <point x="172" y="3" type="line"/>
      <point x="87" y="-173"/>
      <point x="33" y="-230"/>
      <point x="-69" y="-230" type="curve" smooth="yes"/>
      <point x="-93" y="-230"/>
      <point x="-114" y="-223"/>
      <point x="-129" y="-214" type="curve"/>
      <point x="-134" y="-223" type="line"/>
      <point x="-118" y="-234"/>
      <point x="-90" y="-240"/>
    </contour>
  </outline>
</glyph>
<glyph name="z" format="2">
  <advance width="348"/>
  <unicode hex="007A"/>
  <anchor x="122" y="0" name="bottom"/>
  <anchor x="205" y="536" name="top"/>
  <anchor x="394" y="536" name="topright"/>
  <outline>
    <contour>
      <point x="-12" y="0" type="line"/>
      <point x="249" y="0" type="line"/>
      <point x="285" y="138" type="line"/>
      <point x="274" y="138" type="line"/>
      <point x="246" y="42" type="line" smooth="yes"/>
      <point x="238" y="15"/>
      <point x="231" y="10"/>
      <point x="187" y="10" type="curve" smooth="yes"/>
      <point x="20" y="10" type="line"/>
      <point x="343" y="527" type="line"/>
      <point x="345" y="536" type="line"/>
      <point x="120" y="536" type="line"/>
      <point x="84" y="420" type="line"/>
      <point x="96" y="420" type="line"/>
      <point x="117" y="486" type="line" smooth="yes"/>
      <point x="129" y="523"/>
      <point x="136" y="526"/>
      <point x="177" y="526" type="curve" smooth="yes"/>
      <point x="312" y="526" type="line"/>
      <point x="-10" y="10" type="line"/>
    </contour>
  </outline>
</glyph>
<glyph name="currency" format="2">
  <advance width="452"/>
  <unicode hex="00A4"/>
  <outline>
    <contour>
      <point x="57" y="151" type="line"/>
      <point x="130" y="224" type="line"/>
      <point x="161" y="197"/>
      <point x="202" y="181"/>
      <point x="246" y="181" type="curve" smooth="yes"/>
      <point x="290" y="181"/>
      <point x="330" y="197"/>
      <point x="361" y="223" type="curve"/>
      <point x="433" y="151" type="line"/>
      <point x="453" y="171" type="line"/>
      <point x="381" y="243" type="line"/>
      <point x="407" y="275"/>
      <point x="423" y="315"/>
      <point x="423" y="360" type="curve" smooth="yes"/>
      <point x="423" y="404"/>
      <point x="407" y="444"/>
      <point x="381" y="475" type="curve"/>
      <point x="453" y="547" type="line"/>
      <point x="433" y="567" type="line"/>
      <point x="361" y="495" type="line"/>
      <point x="330" y="521"/>
      <point x="290" y="537"/>
      <point x="246" y="537" type="curve" smooth="yes"/>
      <point x="201" y="537"/>
      <point x="161" y="521"/>
      <point x="129" y="495" type="curve"/>
      <point x="57" y="567" type="line"/>
      <point x="37" y="547" type="line"/>
      <point x="109" y="475" type="line"/>
      <point x="83" y="444"/>
      <point x="67" y="404"/>
      <point x="67" y="360" type="curve" smooth="yes"/>
      <point x="67" y="316"/>
      <point x="83" y="275"/>
      <point x="110" y="244" type="curve"/>
      <point x="37" y="171" type="line"/>
    </contour>
    <contour>
      <point x="245" y="209" type="curve" smooth="yes"/>
      <point x="162" y="209"/>
      <point x="95" y="276"/>
      <point x="95" y="359" type="curve" smooth="yes"/>
      <point x="95" y="442"/>
      <point x="162" y="509"/>
      <point x="245" y="509" type="curve" smooth="yes"/>
      <point x="328" y="509"/>
      <point x="395" y="442"/>
      <point x="395" y="359" type="curve" smooth="yes"/>
      <point x="395" y="275"/>
      <point x="328" y="209"/>
    </contour>
  </outline>
</glyph>
<glyph name="eng" format="2">
  <advance width="389"/>
  <unicode hex="014B"/>
  <anchor x="71" y="-240" name="bottom"/>
  <anchor x="236" y="536" name="top"/>
  <anchor x="437" y="536" name="topright"/>
  <outline>
    <contour>
      <point x="108" y="-240" type="curve" smooth="yes"/>
      <point x="186" y="-240"/>
      <point x="221" y="-172"/>
      <point x="258" y="0" type="curve" smooth="yes"/>
      <point x="328" y="326" type="line" smooth="yes"/>
      <point x="339" y="375"/>
      <point x="349" y="423"/>
      <point x="349" y="456" type="curve" smooth="yes"/>
      <point x="349" y="501"/>
      <point x="330" y="543"/>
      <point x="281" y="543" type="curve" smooth="yes"/>
      <point x="228" y="543"/>
      <point x="179" y="493"/>
      <point x="129" y="373" type="curve"/>
      <point x="127" y="373" type="line"/>
      <point x="163" y="536" type="line"/>
      <point x="72" y="536" type="line"/>
      <point x="70" y="526" type="line"/>
      <point x="79" y="526" type="line" smooth="yes"/>
      <point x="114" y="526"/>
      <point x="123" y="515"/>
      <point x="123" y="489" type="curve" smooth="yes"/>
      <point x="123" y="479"/>
      <point x="120" y="466"/>
      <point x="115" y="442" type="curve" smooth="yes"/>
      <point x="21" y="0" type="line"/>
      <point x="49" y="0" type="line"/>
      <point x="108" y="273" type="line" smooth="yes"/>
      <point x="134" y="394"/>
      <point x="207" y="528"/>
      <point x="275" y="528" type="curve" smooth="yes"/>
      <point x="316" y="528"/>
      <point x="323" y="486"/>
      <point x="323" y="459" type="curve" smooth="yes"/>
      <point x="323" y="422"/>
      <point x="309" y="367"/>
      <point x="304" y="342" type="curve" smooth="yes"/>
      <point x="233" y="14" type="line" smooth="yes"/>
      <point x="197" y="-153"/>
      <point x="168" y="-230"/>
      <point x="107" y="-230" type="curve" smooth="yes"/>
      <point x="90" y="-230"/>
      <point x="67" y="-225"/>
      <point x="55" y="-219" type="curve"/>
      <point x="52" y="-229" type="line"/>
      <point x="69" y="-236"/>
      <point x="84" y="-240"/>
    </contour>
  </outline>
</glyph>
<glyph name="OE" format="2">
  <advance width="725"/>
  <unicode hex="0152"/>
  <anchor x="310" y="0" name="bottom"/>
  <anchor x="462" y="714" name="top"/>
  <outline>
    <contour>
      <point x="226" y="-11" type="curve" smooth="yes"/>
      <point x="286" y="-11"/>
      <point x="301" y="0"/>
      <point x="338" y="0" type="curve" smooth="yes"/>
      <point x="622" y="0" type="line"/>
      <point x="662" y="161" type="line"/>
      <point x="652" y="161" type="line"/>
      <point x="638" y="113" type="line" smooth="yes"/>
      <point x="610" y="16"/>
      <point x="603" y="10"/>
      <point x="540" y="10" type="curve" smooth="yes"/>
      <point x="343" y="10" type="line"/>
      <point x="420" y="372" type="line"/>
      <point x="621" y="372" type="line"/>
      <point x="622" y="382" type="line"/>
      <point x="422" y="382" type="line"/>
      <point x="490" y="704" type="line"/>
      <point x="661" y="704" type="line" smooth="yes"/>
      <point x="698" y="704"/>
      <point x="718" y="697"/>
      <point x="718" y="644" type="curve" smooth="yes"/>
      <point x="718" y="622"/>
      <point x="715" y="593"/>
      <point x="708" y="553" type="curve"/>
      <point x="718" y="553" type="line"/>
      <point x="748" y="714" type="line"/>
      <point x="461" y="714" type="line" smooth="yes"/>
      <point x="429" y="714"/>
      <point x="410" y="725"/>
      <point x="362" y="725" type="curve" smooth="yes"/>
      <point x="156" y="725"/>
      <point x="52" y="458"/>
      <point x="52" y="266" type="curve" smooth="yes"/>
      <point x="52" y="85"/>
      <point x="118" y="-11"/>
    </contour>
    <contour>
      <point x="225" y="-1" type="curve" smooth="yes"/>
      <point x="136" y="-1"/>
      <point x="80" y="88"/>
      <point x="80" y="266" type="curve" smooth="yes"/>
      <point x="80" y="444"/>
      <point x="180" y="715"/>
      <point x="359" y="715" type="curve" smooth="yes"/>
      <point x="401" y="715"/>
      <point x="429" y="709"/>
      <point x="462" y="697" type="curve"/>
      <point x="316" y="14" type="line"/>
      <point x="284" y="4"/>
      <point x="262" y="-1"/>
    </contour>
  </outline>
</glyph>
<glyph name="uni0197" format="2">
  <advance width="249"/>
  <unicode hex="0197"/>
  <anchor x="67" y="0" name="bottom"/>
  <anchor x="219" y="714" name="top"/>
  <anchor x="333" y="714" name="topright"/>
  <outline>
    <contour>
      <point x="38" y="373" type="line"/>
      <point x="255" y="373" type="line"/>
      <point x="257" y="384" type="line"/>
      <point x="40" y="384" type="line"/>
    </contour>
    <component base="I" xOffset="-6"/>
  </outline>
</glyph>
<glyph name="uhorn" format="2">
  <advance width="402"/>
  <unicode hex="01B0"/>
  <anchor x="136" y="0" name="bottom"/>
  <anchor x="239" y="536" name="top"/>
  <outline>
    <contour>
      <point x="301" y="-10" type="curve" smooth="yes"/>
      <point x="328" y="-10"/>
      <point x="348" y="10"/>
      <point x="365" y="29" type="curve"/>
      <point x="359" y="36" type="line"/>
      <point x="342" y="16"/>
      <point x="325" y="0"/>
      <point x="304" y="0" type="curve" smooth="yes"/>
      <point x="280" y="0"/>
      <point x="279" y="24"/>
      <point x="279" y="57" type="curve" smooth="yes"/>
      <point x="279" y="98"/>
      <point x="287" y="154"/>
      <point x="297" y="201" type="curve" smooth="yes"/>
      <point x="346" y="430" type="line"/>
      <point x="406" y="461"/>
      <point x="455" y="523"/>
      <point x="455" y="596" type="curve" smooth="yes"/>
      <point x="455" y="616"/>
      <point x="445" y="628"/>
      <point x="431" y="628" type="curve" smooth="yes"/>
      <point x="415" y="628"/>
      <point x="401" y="616"/>
      <point x="401" y="590" type="curve" smooth="yes"/>
      <point x="401" y="569"/>
      <point x="417" y="560"/>
      <point x="417" y="541" type="curve" smooth="yes"/>
      <point x="417" y="504"/>
      <point x="386" y="461"/>
      <point x="349" y="442" type="curve"/>
      <point x="369" y="536" type="line"/>
      <point x="341" y="536" type="line"/>
      <point x="267" y="193" type="line" smooth="yes"/>
      <point x="255" y="137"/>
      <point x="195" y="2"/>
      <point x="115" y="2" type="curve" smooth="yes"/>
      <point x="83" y="2"/>
      <point x="67" y="27"/>
      <point x="67" y="83" type="curve" smooth="yes"/>
      <point x="67" y="120"/>
      <point x="81" y="185"/>
      <point x="91" y="230" type="curve" smooth="yes"/>
      <point x="156" y="536" type="line"/>
      <point x="65" y="536" type="line"/>
      <point x="62" y="526" type="line"/>
      <point x="75" y="526" type="line" smooth="yes"/>
      <point x="109" y="526"/>
      <point x="118" y="523"/>
      <point x="118" y="502" type="curve" smooth="yes"/>
      <point x="118" y="488"/>
      <point x="109" y="447"/>
      <point x="102" y="413" type="curve" smooth="yes"/>
      <point x="63" y="230" type="line" smooth="yes"/>
      <point x="54" y="186"/>
      <point x="39" y="124"/>
      <point x="39" y="85" type="curve" smooth="yes"/>
      <point x="39" y="29"/>
      <point x="59" y="-9"/>
      <point x="110" y="-9" type="curve" smooth="yes"/>
      <point x="170" y="-9"/>
      <point x="218" y="43"/>
      <point x="261" y="142" type="curve"/>
      <point x="262" y="142" type="line"/>
      <point x="256" y="101"/>
      <point x="255" y="85"/>
      <point x="255" y="69" type="curve" smooth="yes"/>
      <point x="255" y="20"/>
      <point x="261" y="-10"/>
    </contour>
  </outline>
</glyph>
<glyph name="jdotless" format="2">
  <advance width="196"/>
  <unicode hex="0237"/>
  <anchor x="-35" y="-240" name="bottom"/>
  <anchor x="132" y="536" name="top"/>
  <anchor x="252" y="714" name="topright"/>
  <outline>
    <contour>
      <point x="-96" y="-240" type="curve" smooth="yes"/>
      <point x="-22" y="-240"/>
      <point x="10" y="-189"/>
      <point x="47" y="-14" type="curve" smooth="yes"/>
      <point x="164" y="536" type="line"/>
      <point x="65" y="536" type="line"/>
      <point x="62" y="526" type="line"/>
      <point x="76" y="526" type="line" smooth="yes"/>
      <point x="110" y="526"/>
      <point x="123" y="521"/>
      <point x="123" y="493" type="curve" smooth="yes"/>
      <point x="123" y="478"/>
      <point x="120" y="463"/>
      <point x="116" y="442" type="curve" smooth="yes"/>
      <point x="16" y="-26" type="line" smooth="yes"/>
      <point x="-16" y="-177"/>
      <point x="-37" y="-230"/>
      <point x="-96" y="-230" type="curve" smooth="yes"/>
      <point x="-108" y="-230"/>
      <point x="-121" y="-228"/>
      <point x="-130" y="-225" type="curve"/>
      <point x="-133" y="-235" type="line"/>
      <point x="-124" y="-238"/>
      <point x="-113" y="-240"/>
    </contour>
  </outline>
</glyph>
<glyph name="uni023A" format="2">
  <advance width="495"/>
  <unicode hex="023A"/>
  <anchor x="186" y="-133" name="bottom"/>
  <anchor x="347" y="714" name="top"/>
  <anchor x="583" y="714" name="topright"/>
  <outline>
    <contour>
      <point x="81" y="-102" type="line"/>
      <point x="92" y="-102" type="line"/>
      <point x="479" y="760" type="line"/>
      <point x="468" y="760" type="line"/>
    </contour>
    <component base="A" xOffset="-4"/>
  </outline>
</glyph>
<glyph name="uni023C" format="2">
  <advance width="357"/>
  <unicode hex="023C"/>
  <anchor x="97" y="-240" name="bottom"/>
  <anchor x="298" y="714" name="top"/>
  <anchor x="394" y="536" name="topright"/>
  <outline>
    <contour>
      <point x="-4" y="-131" type="line"/>
      <point x="9" y="-131" type="line"/>
      <point x="411" y="684" type="line"/>
      <point x="398" y="684" type="line"/>
    </contour>
    <component base="c" xOffset="12"/>
  </outline>
</glyph>
<glyph name="uni024E" format="2">
  <advance width="431"/>
  <unicode hex="024E"/>
  <anchor x="162" y="0" name="bottom"/>
  <anchor x="314" y="714" name="top"/>
  <anchor x="569" y="714" name="topright"/>
  <outline>
    <contour>
      <point x="70" y="566" type="line"/>
      <point x="479" y="566" type="line"/>
      <point x="481" y="576" type="line"/>
      <point x="72" y="576" type="line"/>
    </contour>
    <component base="Y" xOffset="4"/>
  </outline>
</glyph>
<glyph name="uni02A2" format="2">
  <advance width="319"/>
  <unicode hex="02A2"/>
  <anchor x="93" y="0" name="bottom"/>
  <anchor x="236" y="776" name="top"/>
  <outline>
    <contour>
      <point x="34" y="212" type="line"/>
      <point x="237" y="212" type="line"/>
      <point x="239" y="222" type="line"/>
      <point x="36" y="222" type="line"/>
    </contour>
    <component base="uni0295"/>
  </outline>
</glyph>
<glyph name="caron" format="2">
  <advance width="256"/>
  <unicode hex="02C7"/>
  <outline>
    <contour>
      <point x="194" y="606" type="curve"/>
      <point x="222" y="606" type="line"/>
      <point x="243" y="654"/>
      <point x="277" y="708"/>
      <point x="320" y="758" type="curve"/>
      <point x="321" y="766" type="line"/>
      <point x="313" y="766" type="line"/>
      <point x="265" y="719"/>
      <point x="235" y="672"/>
      <point x="212" y="631" type="curve"/>
      <point x="198" y="681"/>
      <point x="183" y="717"/>
      <point x="154" y="766" type="curve"/>
      <point x="146" y="766" type="line"/>
      <point x="145" y="758" type="line"/>
      <point x="165" y="719"/>
      <point x="189" y="650"/>
    </contour>
  </outline>
</glyph>
<glyph name="dbloverlinecomb" format="2">
  <unicode hex="033F"/>
  <anchor x="57" y="536" name="_top"/>
  <anchor x="126" y="886" name="top"/>
  <outline>
    <contour>
      <point x="-47" y="830" type="line"/>
      <point x="283" y="830" type="line"/>
      <point x="288" y="850" type="line"/>
      <point x="-42" y="850" type="line"/>
    </contour>
    <contour>
      <point x="-70" y="710" type="line"/>
      <point x="259" y="710" type="line"/>
      <point x="263" y="730" type="line"/>
      <point x="-66" y="730" type="line"/>
    </contour>
  </outline>
</glyph>
<glyph name="tildedoublecomb" format="2">
  <unicode hex="0360"/>
  <anchor x="58" y="536" name="_top"/>
  <anchor x="87" y="712" name="top"/>
  <outline>
    <contour>
      <point x="-202" y="612" type="curve"/>
      <point x="-192" y="612" type="line"/>
      <point x="-173" y="664"/>
      <point x="-141" y="684"/>
      <point x="-57" y="684" type="curve" smooth="yes"/>
      <point x="62" y="684"/>
      <point x="119" y="619"/>
      <point x="230" y="619" type="curve" smooth="yes"/>
      <point x="308" y="619"/>
      <point x="350" y="646"/>
      <point x="372" y="716" type="curve"/>
      <point x="362" y="716" type="line"/>
      <point x="347" y="665"/>
      <point x="312" y="644"/>
      <point x="228" y="644" type="curve" smooth="yes"/>
      <point x="125" y="644"/>
      <point x="69" y="709"/>
      <point x="-59" y="709" type="curve" smooth="yes"/>
      <point x="-128" y="709"/>
      <point x="-177" y="685"/>
    </contour>
  </outline>
</glyph>
<glyph name="heta" format="2">
  <advance width="365"/>
  <unicode hex="0371"/>
  <anchor x="112" y="0" name="bottom"/>
  <anchor x="226" y="536" name="top"/>
  <outline>
    <contour>
      <point x="14" y="0" type="line"/>
      <point x="42" y="0" type="line"/>
      <point x="100" y="274" type="line"/>
      <point x="295" y="274" type="line"/>
      <point x="298" y="284" type="line"/>
      <point x="102" y="284" type="line"/>
      <point x="155" y="536" type="line"/>
      <point x="62" y="536" type="line"/>
      <point x="60" y="526" type="line"/>
      <point x="71" y="526" type="line" smooth="yes"/>
      <point x="102" y="526"/>
      <point x="113" y="520"/>
      <point x="113" y="489" type="curve" smooth="yes"/>
      <point x="113" y="477"/>
      <point x="110" y="461"/>
      <point x="106" y="441" type="curve" smooth="yes"/>
    </contour>
  </outline>
</glyph>
<glyph name="beta" format="2">
  <advance width="419"/>
  <unicode hex="03B2"/>
  <anchor x="188" y="0" name="bottom"/>
  <anchor x="328" y="754" name="top"/>
  <anchor x="502" y="754" name="topright"/>
  <outline>
    <contour>
      <point x="-29" y="-240" type="line"/>
      <point x="-1" y="-240" type="line"/>
      <point x="61" y="54" type="line"/>
      <point x="87" y="14"/>
      <point x="124" y="-10"/>
      <point x="176" y="-10" type="curve" smooth="yes"/>
      <point x="290" y="-10"/>
      <point x="368" y="108"/>
      <point x="368" y="245" type="curve" smooth="yes"/>
      <point x="368" y="334"/>
      <point x="335" y="398"/>
      <point x="284" y="416" type="curve"/>
      <point x="284" y="417" type="line"/>
      <point x="344" y="437"/>
      <point x="433" y="501"/>
      <point x="433" y="617" type="curve" smooth="yes"/>
      <point x="433" y="707"/>
      <point x="380" y="755"/>
      <point x="305" y="755" type="curve" smooth="yes"/>
      <point x="226" y="755"/>
      <point x="171" y="702"/>
      <point x="145" y="579" type="curve" smooth="yes"/>
    </contour>
    <contour>
      <point x="172" y="0" type="curve" smooth="yes"/>
      <point x="130" y="0"/>
      <point x="93" y="22"/>
      <point x="64" y="66" type="curve"/>
      <point x="175" y="590" type="line" smooth="yes"/>
      <point x="197" y="694"/>
      <point x="235" y="745"/>
      <point x="301" y="745" type="curve" smooth="yes"/>
      <point x="371" y="745"/>
      <point x="405" y="688"/>
      <point x="405" y="619" type="curve" smooth="yes"/>
      <point x="405" y="521"/>
      <point x="338" y="452"/>
      <point x="267" y="423" type="curve"/>
      <point x="255" y="425"/>
      <point x="244" y="433"/>
      <point x="220" y="433" type="curve" smooth="yes"/>
      <point x="199" y="433"/>
      <point x="181" y="426"/>
      <point x="181" y="415" type="curve" smooth="yes"/>
      <point x="181" y="405"/>
      <point x="193" y="401"/>
      <point x="207" y="401" type="curve" smooth="yes"/>
      <point x="225" y="401"/>
      <point x="249" y="407"/>
      <point x="265" y="411" type="curve"/>
      <point x="316" y="388"/>
      <point x="340" y="328"/>
      <point x="340" y="251" type="curve" smooth="yes"/>
      <point x="340" y="119"/>
      <point x="269" y="0"/>
    </contour>
  </outline>
</glyph>
<glyph name="nu" format="2">
  <advance width="392"/>
  <unicode hex="03BD"/>
  <anchor x="138" y="0" name="bottom"/>
  <anchor x="252" y="536" name="top"/>
  <outline>
    <contour>
      <point x="124" y="0" type="curve"/>
      <point x="140" y="0" type="line"/>
      <point x="278" y="166"/>
      <point x="379" y="367"/>
      <point x="379" y="487" type="curve" smooth="yes"/>
      <point x="379" y="523"/>
      <point x="370" y="546"/>
      <point x="351" y="546" type="curve" smooth="yes"/>
      <point x="338" y="546"/>
      <point x="326" y="535"/>
      <point x="323" y="516" type="curve"/>
      <point x="341" y="516"/>
      <point x="351" y="504"/>
      <point x="351" y="468" type="curve" smooth="yes"/>
      <point x="351" y="359"/>
      <point x="260" y="162"/>
      <point x="146" y="22" type="curve"/>
      <point x="143" y="449"/>
      <point x="134" y="544"/>
      <point x="78" y="544" type="curve" smooth="yes"/>
      <point x="50" y="544"/>
      <point x="32" y="519"/>
      <point x="20" y="501" type="curve"/>
      <point x="26" y="496" type="line"/>
      <point x="29" y="500"/>
      <point x="45" y="526"/>
      <point x="64" y="526" type="curve" smooth="yes"/>
      <point x="117" y="526"/>
      <point x="121" y="335"/>
    </contour>
  </outline>
</glyph>
<glyph name="KaiSymbol" format="2">
  <advance width="502"/>
  <unicode hex="03CF"/>
  <outline>
    <contour>
      <point x="344" y="-172" type="line"/>
      <point x="353" y="-166" type="line"/>
      <point x="331" y="-131" type="line" smooth="yes"/>
      <point x="323" y="-119"/>
      <point x="319" y="-110"/>
      <point x="319" y="-100" type="curve" smooth="yes"/>
      <point x="319" y="-77"/>
      <point x="344" y="-63"/>
      <point x="392" y="-35" type="curve" smooth="yes"/>
      <point x="452" y="0" type="line"/>
      <point x="455" y="10" type="line"/>
      <point x="407" y="10"/>
      <point x="391" y="17"/>
      <point x="377" y="64" type="curve" smooth="yes"/>
      <point x="273" y="410" type="line"/>
      <point x="448" y="596" type="line" smooth="yes"/>
      <point x="540" y="694"/>
      <point x="543" y="704"/>
      <point x="582" y="704" type="curve"/>
      <point x="584" y="714" type="line"/>
      <point x="451" y="714" type="line"/>
      <point x="449" y="704" type="line"/>
      <point x="483" y="704"/>
      <point x="500" y="702"/>
      <point x="500" y="685" type="curve" smooth="yes"/>
      <point x="500" y="668"/>
      <point x="485" y="653"/>
      <point x="462" y="628" type="curve" smooth="yes"/>
      <point x="150" y="296" type="line"/>
      <point x="226" y="651" type="line" smooth="yes"/>
      <point x="237" y="700"/>
      <point x="251" y="704"/>
      <point x="289" y="704" type="curve" smooth="yes"/>
      <point x="316" y="704" type="line"/>
      <point x="318" y="714" type="line"/>
      <point x="132" y="714" type="line"/>
      <point x="130" y="704" type="line"/>
      <point x="161" y="704" type="line" smooth="yes"/>
      <point x="189" y="704"/>
      <point x="201" y="695"/>
      <point x="201" y="677" type="curve" smooth="yes"/>
      <point x="201" y="671"/>
      <point x="200" y="663"/>
      <point x="198" y="655" type="curve"/>
      <point x="76" y="77" type="line" smooth="yes"/>
      <point x="64" y="21"/>
      <point x="51" y="10"/>
      <point x="12" y="10" type="curve" smooth="yes"/>
      <point x="-18" y="10" type="line"/>
      <point x="-20" y="0" type="line"/>
      <point x="166" y="0" type="line"/>
      <point x="168" y="10" type="line"/>
      <point x="141" y="10" type="line" smooth="yes"/>
      <point x="113" y="10"/>
      <point x="100" y="19"/>
      <point x="100" y="38" type="curve" smooth="yes"/>
      <point x="100" y="49"/>
      <point x="103" y="63"/>
      <point x="107" y="83" type="curve" smooth="yes"/>
      <point x="147" y="276" type="line"/>
      <point x="253" y="387" type="line"/>
      <point x="348" y="61" type="line" smooth="yes"/>
      <point x="359" y="22"/>
      <point x="377" y="6"/>
      <point x="408" y="2" type="curve"/>
      <point x="380" y="-15" type="line" smooth="yes"/>
      <point x="340" y="-39"/>
      <point x="317" y="-51"/>
      <point x="299" y="-51" type="curve" smooth="yes"/>
      <point x="283" y="-51"/>
      <point x="273" y="-42"/>
      <point x="257" y="-19" type="curve" smooth="yes"/>
      <point x="232" y="17" type="line"/>
      <point x="222" y="11" type="line"/>
    </contour>
  </outline>
</glyph>
<glyph name="uni049E" format="2">
  <advance width="481"/>
  <unicode hex="049E"/>
  <anchor x="206" y="0" name="bottom"/>
  <anchor x="358" y="714" name="top"/>
  <outline>
    <contour>
      <point x="101" y="570" type="line"/>
      <point x="300" y="570" type="line"/>
      <point x="302" y="580" type="line"/>
      <point x="103" y="580" type="line"/>
    </contour>
    <component base="afii10028"/>
  </outline>
</glyph>
<glyph name="bullet" format="2">
  <advance width="250"/>
  <unicode hex="2022"/>
  <outline>
    <contour>
      <point x="143" y="232" type="curve" smooth="yes"/>
      <point x="196" y="232"/>
      <point x="219" y="289"/>
      <point x="219" y="355" type="curve" smooth="yes"/>
      <point x="219" y="420"/>
      <point x="196" y="478"/>
      <point x="143" y="478" type="curve" smooth="yes"/>
      <point x="93" y="478"/>
      <point x="66" y="420"/>
      <point x="66" y="355" type="curve" smooth="yes"/>
      <point x="66" y="289"/>
      <point x="93" y="232"/>
    </contour>
  </outline>
</glyph>
<glyph name="guilsinglleft" format="2">
  <advance width="241"/>
  <unicode hex="2039"/>
  <outline>
    <contour>
      <point x="147" y="92" type="line"/>
      <point x="163" y="92" type="line"/>
      <point x="98" y="259" type="line"/>
      <point x="220" y="448" type="line"/>
      <point x="203" y="448" type="line"/>
      <point x="63" y="264" type="line"/>
      <point x="61" y="258" type="line"/>
    </contour>
  </outline>
</glyph>
<glyph name="referencemark" format="2">
  <advance width="645"/>
  <unicode hex="203B"/>
  <outline>
    <contour>
      <point x="341" y="635" type="curve" smooth="yes"/>
      <point x="358" y="635"/>
      <point x="365" y="647"/>
      <point x="365" y="674" type="curve" smooth="yes"/>
      <point x="365" y="702"/>
      <point x="358" y="714"/>
      <point x="341" y="714" type="curve" smooth="yes"/>
      <point x="322" y="714"/>
      <point x="314" y="702"/>
      <point x="314" y="674" type="curve" smooth="yes"/>
      <point x="314" y="647"/>
      <point x="322" y="635"/>
    </contour>
    <contour>
      <point x="576" y="317" type="curve" smooth="yes"/>
      <point x="593" y="317"/>
      <point x="600" y="329"/>
      <point x="600" y="356" type="curve" smooth="yes"/>
      <point x="600" y="383"/>
      <point x="593" y="395"/>
      <point x="576" y="395" type="curve" smooth="yes"/>
      <point x="557" y="395"/>
      <point x="549" y="383"/>
      <point x="549" y="356" type="curve" smooth="yes"/>
      <point x="549" y="329"/>
      <point x="557" y="317"/>
    </contour>
    <contour>
      <point x="341" y="0" type="curve" smooth="yes"/>
      <point x="358" y="0"/>
      <point x="365" y="12"/>
      <point x="365" y="39" type="curve" smooth="yes"/>
      <point x="365" y="67"/>
      <point x="358" y="79"/>
      <point x="341" y="79" type="curve" smooth="yes"/>
      <point x="322" y="79"/>
      <point x="314" y="67"/>
      <point x="314" y="39" type="curve" smooth="yes"/>
      <point x="314" y="12"/>
      <point x="322" y="0"/>
    </contour>
    <contour>
      <point x="108" y="317" type="curve" smooth="yes"/>
      <point x="125" y="317"/>
      <point x="132" y="329"/>
      <point x="132" y="356" type="curve" smooth="yes"/>
      <point x="132" y="383"/>
      <point x="125" y="395"/>
      <point x="108" y="395" type="curve" smooth="yes"/>
      <point x="89" y="395"/>
      <point x="81" y="383"/>
      <point x="81" y="356" type="curve" smooth="yes"/>
      <point x="81" y="329"/>
      <point x="89" y="317"/>
    </contour>
    <contour>
      <point x="108" y="41" type="line"/>
      <point x="340" y="340" type="line"/>
      <point x="570" y="43" type="line"/>
      <point x="585" y="57" type="line"/>
      <point x="353" y="356" type="line"/>
      <point x="585" y="654" type="line"/>
      <point x="570" y="668" type="line"/>
      <point x="341" y="373" type="line"/>
      <point x="111" y="670" type="line"/>
      <point x="96" y="656" type="line"/>
      <point x="328" y="356" type="line"/>
      <point x="93" y="55" type="line"/>
    </contour>
  </outline>
</glyph>
<glyph name="caretinsertionpoint" format="2">
  <advance width="354"/>
  <unicode hex="2041"/>
  <outline>
    <contour>
      <point x="-26" y="0" type="line"/>
      <point x="-5" y="0" type="line"/>
      <point x="120" y="329" type="line"/>
      <point x="244" y="0" type="line"/>
      <point x="266" y="0" type="line"/>
      <point x="131" y="358" type="line"/>
      <point x="266" y="714" type="line"/>
      <point x="245" y="714" type="line"/>
    </contour>
  </outline>
</glyph>
<glyph name="tironiansignet" format="2">
  <advance width="420"/>
  <unicode hex="204A"/>
  <outline>
    <contour>
      <point x="193" y="-177" type="line"/>
      <point x="221" y="-177" type="line"/>
      <point x="362" y="546" type="line"/>
      <point x="362" y="557" type="line"/>
      <point x="302" y="542"/>
      <point x="246" y="536"/>
      <point x="186" y="536" type="curve" smooth="yes"/>
      <point x="131" y="536"/>
      <point x="98" y="544"/>
      <point x="61" y="564" type="curve"/>
      <point x="57" y="561"/>
      <point x="56" y="555"/>
      <point x="56" y="549" type="curve" smooth="yes"/>
      <point x="56" y="529"/>
      <point x="99" y="511"/>
      <point x="179" y="511" type="curve" smooth="yes"/>
      <point x="234" y="511"/>
      <point x="289" y="522"/>
      <point x="334" y="533" type="curve"/>
    </contour>
  </outline>
</glyph>
<glyph name="closeup" format="2">
  <advance width="545"/>
  <unicode hex="2050"/>
  <outline>
    <contour>
      <point x="74" y="532" type="curve"/>
      <point x="84" y="532" type="line"/>
      <point x="122" y="620"/>
      <point x="191" y="697"/>
      <point x="310" y="697" type="curve" smooth="yes"/>
      <point x="420" y="697"/>
      <point x="490" y="622"/>
      <point x="522" y="532" type="curve"/>
      <point x="532" y="532" type="line"/>
      <point x="504" y="636"/>
      <point x="432" y="725"/>
      <point x="312" y="725" type="curve" smooth="yes"/>
      <point x="182" y="725"/>
      <point x="113" y="636"/>
    </contour>
    <contour>
      <point x="279" y="-10" type="curve" smooth="yes"/>
      <point x="409" y="-10"/>
      <point x="478" y="79"/>
      <point x="517" y="183" type="curve"/>
      <point x="507" y="183" type="line"/>
      <point x="469" y="95"/>
      <point x="400" y="18"/>
      <point x="281" y="18" type="curve" smooth="yes"/>
      <point x="171" y="18"/>
      <point x="102" y="93"/>
      <point x="70" y="183" type="curve"/>
      <point x="59" y="183" type="line"/>
      <point x="87" y="79"/>
      <point x="159" y="-10"/>
    </contour>
  </outline>
</glyph>
<glyph name="zerosuperior" format="2">
  <advance width="300"/>
  <unicode hex="2070"/>
  <outline>
    <contour>
      <point x="189" y="378" type="curve" smooth="yes"/>
      <point x="288" y="378"/>
      <point x="358" y="507"/>
      <point x="358" y="665" type="curve" smooth="yes"/>
      <point x="358" y="783"/>
      <point x="307" y="820"/>
      <point x="253" y="820" type="curve" smooth="yes"/>
      <point x="135" y="820"/>
      <point x="83" y="671"/>
      <point x="83" y="537" type="curve" smooth="yes"/>
      <point x="83" y="420"/>
      <point x="130" y="378"/>
    </contour>
    <contour>
      <point x="192" y="388" type="curve" smooth="yes"/>
      <point x="148" y="388"/>
      <point x="110" y="418"/>
      <point x="110" y="538" type="curve" smooth="yes"/>
      <point x="110" y="660"/>
      <point x="153" y="810"/>
      <point x="251" y="810" type="curve" smooth="yes"/>
      <point x="294" y="810"/>
      <point x="331" y="784"/>
      <point x="331" y="665" type="curve" smooth="yes"/>
      <point x="331" y="519"/>
      <point x="270" y="388"/>
    </contour>
  </outline>
</glyph>
<glyph name="livreTournois" format="2">
  <advance width="372"/>
  <unicode hex="20B6"/>
  <outline>
    <contour>
      <point x="250" y="-10" type="curve" smooth="yes"/>
      <point x="271" y="-10"/>
      <point x="296" y="-3"/>
      <point x="315" y="7" type="curve"/>
      <point x="312" y="16" type="line"/>
      <point x="290" y="5"/>
      <point x="274" y="0"/>
      <point x="251" y="0" type="curve" smooth="yes"/>
      <point x="220" y="0"/>
      <point x="203" y="24"/>
      <point x="203" y="66" type="curve" smooth="yes"/>
      <point x="203" y="79"/>
      <point x="203" y="97"/>
      <point x="211" y="135" type="curve" smooth="yes"/>
      <point x="292" y="526" type="line"/>
      <point x="373" y="526" type="line"/>
      <point x="375" y="536" type="line"/>
      <point x="294" y="536" type="line"/>
      <point x="331" y="714" type="line"/>
      <point x="304" y="714" type="line"/>
      <point x="267" y="536" type="line"/>
      <point x="155" y="536" type="line"/>
      <point x="192" y="714" type="line"/>
      <point x="164" y="714" type="line"/>
      <point x="127" y="536" type="line"/>
      <point x="59" y="536" type="line"/>
      <point x="57" y="526" type="line"/>
      <point x="125" y="526" type="line"/>
      <point x="16" y="0" type="line"/>
      <point x="44" y="0" type="line"/>
      <point x="153" y="526" type="line"/>
      <point x="265" y="526" type="line"/>
      <point x="185" y="141" type="line" smooth="yes"/>
      <point x="180" y="118"/>
      <point x="175" y="90"/>
      <point x="175" y="70" type="curve" smooth="yes"/>
      <point x="175" y="-2"/>
      <point x="214" y="-10"/>
    </contour>
  </outline>
</glyph>
<glyph name="ruble" format="2">
  <advance width="432"/>
  <unicode hex="20BD"/>
  <outline>
    <contour>
      <point x="-9" y="0" type="line"/>
      <point x="191" y="0" type="line"/>
      <point x="193" y="10" type="line"/>
      <point x="150" y="10" type="line" smooth="yes"/>
      <point x="120" y="10"/>
      <point x="109" y="19"/>
      <point x="109" y="38" type="curve" smooth="yes"/>
      <point x="109" y="44"/>
      <point x="110" y="55"/>
      <point x="113" y="70" type="curve" smooth="yes"/>
      <point x="136" y="180" type="line"/>
      <point x="272" y="180" type="line"/>
      <point x="274" y="190" type="line"/>
      <point x="138" y="190" type="line"/>
      <point x="160" y="292" type="line"/>
      <point x="219" y="292" type="line" smooth="yes"/>
      <point x="438" y="292"/>
      <point x="473" y="461"/>
      <point x="473" y="551" type="curve" smooth="yes"/>
      <point x="473" y="661"/>
      <point x="421" y="714"/>
      <point x="315" y="714" type="curve" smooth="yes"/>
      <point x="143" y="714" type="line"/>
      <point x="141" y="704" type="line"/>
      <point x="167" y="704" type="line" smooth="yes"/>
      <point x="196" y="704"/>
      <point x="211" y="696"/>
      <point x="211" y="675" type="curve" smooth="yes"/>
      <point x="211" y="669"/>
      <point x="210" y="660"/>
      <point x="208" y="650" type="curve" smooth="yes"/>
      <point x="111" y="190" type="line"/>
      <point x="22" y="190" type="line"/>
      <point x="20" y="180" type="line"/>
      <point x="108" y="180" type="line"/>
      <point x="86" y="74" type="line" smooth="yes"/>
      <point x="75" y="22"/>
      <point x="60" y="10"/>
      <point x="22" y="10" type="curve" smooth="yes"/>
      <point x="-7" y="10" type="line"/>
    </contour>
    <contour>
      <point x="44" y="292" type="line"/>
      <point x="142" y="292" type="line"/>
      <point x="145" y="302" type="line"/>
      <point x="46" y="302" type="line"/>
    </contour>
    <contour>
      <point x="163" y="302" type="line"/>
      <point x="248" y="704" type="line"/>
      <point x="308" y="704" type="line" smooth="yes"/>
      <point x="407" y="704"/>
      <point x="445" y="656"/>
      <point x="445" y="552" type="curve" smooth="yes"/>
      <point x="445" y="407"/>
      <point x="371" y="302"/>
      <point x="215" y="302" type="curve" smooth="yes"/>
    </contour>
  </outline>
</glyph>
<glyph name="turnediota" format="2">
  <advance width="231"/>
  <unicode hex="2129"/>
  <outline>
    <contour>
      <point x="67" y="0" type="line"/>
      <point x="95" y="0" type="line"/>
      <point x="174" y="379" type="line" smooth="yes"/>
      <point x="181" y="413"/>
      <point x="187" y="451"/>
      <point x="187" y="469" type="curve" smooth="yes"/>
      <point x="187" y="524"/>
      <point x="164" y="546"/>
      <point x="123" y="546" type="curve" smooth="yes"/>
      <point x="95" y="546"/>
      <point x="73" y="536"/>
      <point x="50" y="521" type="curve"/>
      <point x="54" y="511" type="line"/>
      <point x="79" y="528"/>
      <point x="100" y="536"/>
      <point x="120" y="536" type="curve" smooth="yes"/>
      <point x="144" y="536"/>
      <point x="159" y="522"/>
      <point x="159" y="469" type="curve" smooth="yes"/>
      <point x="159" y="453"/>
      <point x="153" y="415"/>
      <point x="146" y="379" type="curve" smooth="yes"/>
    </contour>
  </outline>
</glyph>
<glyph name="reversedSansSerifL" format="2">
  <advance width="460"/>
  <unicode hex="2143"/>
  <outline>
    <contour>
      <point x="5" y="0" type="line"/>
      <point x="391" y="0" type="line"/>
      <point x="394" y="10" type="line"/>
      <point x="381" y="10" type="line" smooth="yes"/>
      <point x="340" y="10"/>
      <point x="325" y="12"/>
      <point x="325" y="37" type="curve" smooth="yes"/>
      <point x="325" y="48"/>
      <point x="327" y="63"/>
      <point x="332" y="85" type="curve" smooth="yes"/>
      <point x="448" y="634" type="line" smooth="yes"/>
      <point x="461" y="694"/>
      <point x="470" y="704"/>
      <point x="518" y="704" type="curve" smooth="yes"/>
      <point x="540" y="704" type="line"/>
      <point x="543" y="714" type="line"/>
      <point x="329" y="714" type="line"/>
      <point x="327" y="704" type="line"/>
      <point x="378" y="704" type="line" smooth="yes"/>
      <point x="413" y="704"/>
      <point x="425" y="699"/>
      <point x="425" y="674" type="curve" smooth="yes"/>
      <point x="425" y="663"/>
      <point x="423" y="651"/>
      <point x="419" y="633" type="curve" smooth="yes"/>
      <point x="288" y="10" type="line"/>
      <point x="92" y="10" type="line" smooth="yes"/>
      <point x="46" y="10"/>
      <point x="28" y="13"/>
      <point x="28" y="47" type="curve" smooth="yes"/>
      <point x="28" y="59"/>
      <point x="30" y="76"/>
      <point x="34" y="98" type="curve" smooth="yes"/>
      <point x="52" y="205" type="line"/>
      <point x="42" y="205" type="line"/>
    </contour>
  </outline>
</glyph>
<glyph name="uni2C66" format="2">
  <advance width="256"/>
  <unicode hex="2C66"/>
  <anchor x="31" y="-209" name="bottom"/>
  <anchor x="227" y="714" name="top"/>
  <anchor x="189" y="268" name="center"/>
  <anchor x="318" y="659" name="topright"/>
  <outline>
    <contour>
      <point x="-21" y="-209" type="line"/>
      <point x="-11" y="-209" type="line"/>
      <point x="282" y="714" type="line"/>
      <point x="272" y="714" type="line"/>
    </contour>
    <component base="t" xOffset="10"/>
  </outline>
</glyph>
<glyph name="raisedinterpolationmarker" format="2">
  <advance width="511"/>
  <unicode hex="2E06"/>
  <outline>
    <contour>
      <point x="333" y="246" type="line"/>
      <point x="353" y="246" type="line"/>
      <point x="353" y="669" type="line"/>
      <point x="497" y="669" type="line"/>
      <point x="497" y="689" type="line"/>
      <point x="188" y="689" type="line"/>
      <point x="188" y="669" type="line"/>
      <point x="333" y="669" type="line"/>
    </contour>
  </outline>
</glyph>
<glyph name="raisedsquare" format="2">
  <advance width="511"/>
  <unicode hex="2E0B"/>
  <outline>
    <contour>
      <point x="172" y="325" type="line"/>
      <point x="441" y="325" type="line"/>
      <point x="441" y="694" type="line"/>
      <point x="172" y="694" type="line"/>
    </contour>
    <contour>
      <point x="192" y="345" type="line"/>
      <point x="192" y="674" type="line"/>
      <point x="421" y="674" type="line"/>
      <point x="421" y="345" type="line"/>
    </contour>
  </outline>
</glyph>
<glyph name="uniA642" format="2">
  <advance width="350"/>
  <unicode hex="A642"/>
  <outline>
    <contour>
      <point x="76" y="375" type="line"/>
      <point x="369" y="375" type="line"/>
      <point x="371" y="385" type="line"/>
      <point x="79" y="385" type="line"/>
    </contour>
    <component base="uniA640"/>
  </outline>
</glyph>
<glyph name="uniA680" format="2">
  <advance width="500"/>
  <unicode hex="A680"/>
  <anchor x="209" y="0" name="bottom"/>
  <anchor x="361" y="714" name="top"/>
  <outline>
    <contour>
      <point x="298" y="704" type="line"/>
      <point x="308" y="704" type="line"/>
      <point x="338" y="840" type="line"/>
      <point x="328" y="840" type="line"/>
    </contour>
    <component base="afii10021"/>
  </outline>
</glyph>
<glyph name="uniA759" format="2">
  <advance width="507"/>
  <unicode hex="A759"/>
  <anchor x="78" y="-240" name="bottom"/>
  <anchor x="243" y="536" name="top"/>
  <anchor x="410" y="536" name="topright"/>
  <outline>
    <contour>
      <point x="82" y="-179" type="line"/>
      <point x="396" y="146" type="line" smooth="yes"/>
      <point x="482" y="235"/>
      <point x="528" y="286"/>
      <point x="528" y="362" type="curve" smooth="yes"/>
      <point x="528" y="412"/>
      <point x="509" y="431"/>
      <point x="486" y="431" type="curve" smooth="yes"/>
      <point x="467" y="431"/>
      <point x="460" y="419"/>
      <point x="460" y="399" type="curve"/>
      <point x="482" y="399"/>
      <point x="499" y="388"/>
      <point x="499" y="342" type="curve" smooth="yes"/>
      <point x="499" y="279"/>
      <point x="467" y="234"/>
      <point x="390" y="155" type="curve" smooth="yes"/>
      <point x="74" y="-172" type="line"/>
    </contour>
    <component base="q"/>
  </outline>
</glyph>
<glyph name="uniAB30" format="2">
  <advance width="405"/>
  <unicode hex="AB30"/>
  <anchor x="148" y="0" name="bottom"/>
  <anchor x="262" y="536" name="top"/>
  <outline>
    <contour>
      <point x="-16" y="275" type="line"/>
      <point x="356" y="275" type="line"/>
      <point x="358" y="285" type="line"/>
      <point x="-14" y="285" type="line"/>
    </contour>
    <component base="uni0251" xOffset="-18"/>
  </outline>
</glyph>
<glyph name="uniAB41" format="2">
  <advance width="640"/>
  <unicode hex="AB41"/>
  <anchor x="399" y="536" name="bottom"/>
  <anchor x="285" y="0" name="top"/>
  <outline>
    <contour>
      <point x="270" y="-51" type="line"/>
      <point x="281" y="-51" type="line"/>
      <point x="608" y="577" type="line"/>
      <point x="597" y="577" type="line"/>
    </contour>
    <component base="oe" xScale="-1" yScale="-1" xOffset="639" yOffset="536"/>
  </outline>
</glyph>
<glyph name="uniAB4F" format="2">
  <advance width="394"/>
  <unicode hex="AB4F"/>
  <outline>
    <contour>
      <point x="9" y="276" type="line"/>
      <point x="384" y="276" type="line"/>
      <point x="386" y="286" type="line"/>
      <point x="11" y="286" type="line"/>
    </contour>
    <component base="uniAB4E" xOffset="-4"/>
  </outline>
</glyph>
<glyph name="s_t" format="2">
  <advance width="555"/>
  <unicode hex="FB06"/>
  <anchor x="102" y="0" name="bottom"/>
  <anchor x="489" y="268" name="center"/>
  <anchor x="216" y="536" name="top"/>
  <anchor x="618" y="659" name="topright"/>
  <outline>
    <contour>
      <point x="429" y="-10" type="curve" smooth="yes"/>
      <point x="447" y="-10"/>
      <point x="473" y="-3"/>
      <point x="501" y="13" type="curve"/>
      <point x="498" y="22" type="line"/>
      <point x="473" y="8"/>
      <point x="454" y="0"/>
      <point x="429" y="0" type="curve" smooth="yes"/>
      <point x="400" y="0"/>
      <point x="391" y="19"/>
      <point x="391" y="59" type="curve" smooth="yes"/>
      <point x="391" y="75"/>
      <point x="391" y="96"/>
      <point x="408" y="177" type="curve" smooth="yes"/>
      <point x="480" y="526" type="line"/>
      <point x="561" y="526" type="line"/>
      <point x="563" y="536" type="line"/>
      <point x="482" y="536" type="line"/>
      <point x="496" y="602" type="line" smooth="yes"/>
      <point x="502" y="629"/>
      <point x="505" y="654"/>
      <point x="505" y="671" type="curve" smooth="yes"/>
      <point x="505" y="731"/>
      <point x="466" y="770"/>
      <point x="396" y="770" type="curve" smooth="yes"/>
      <point x="312" y="770"/>
      <point x="254" y="716"/>
      <point x="254" y="620" type="curve" smooth="yes"/>
      <point x="254" y="563"/>
      <point x="272" y="504"/>
      <point x="281" y="444" type="curve"/>
      <point x="301" y="444" type="line"/>
      <point x="301" y="491"/>
      <point x="280" y="545"/>
      <point x="280" y="616" type="curve" smooth="yes"/>
      <point x="280" y="705"/>
      <point x="320" y="760"/>
      <point x="398" y="760" type="curve" smooth="yes"/>
      <point x="458" y="760"/>
      <point x="479" y="727"/>
      <point x="479" y="670" type="curve" smooth="yes"/>
      <point x="479" y="632"/>
      <point x="469" y="575"/>
      <point x="447" y="550" type="curve" smooth="yes"/>
      <point x="434" y="535"/>
      <point x="413" y="531"/>
      <point x="385" y="531" type="curve"/>
      <point x="384" y="526" type="line"/>
      <point x="452" y="526" type="line"/>
      <point x="383" y="192" type="line" smooth="yes"/>
      <point x="367" y="114"/>
      <point x="365" y="94"/>
      <point x="365" y="63" type="curve" smooth="yes"/>
      <point x="365" y="24"/>
      <point x="379" y="-10"/>
    </contour>
    <contour>
      <point x="127" y="-10" type="curve" smooth="yes"/>
      <point x="207" y="-10"/>
      <point x="257" y="54"/>
      <point x="257" y="143" type="curve" smooth="yes"/>
      <point x="257" y="217"/>
      <point x="222" y="252"/>
      <point x="177" y="290" type="curve" smooth="yes"/>
      <point x="130" y="330"/>
      <point x="101" y="355"/>
      <point x="101" y="416" type="curve" smooth="yes"/>
      <point x="101" y="491"/>
      <point x="146" y="537"/>
      <point x="204" y="537" type="curve" smooth="yes"/>
      <point x="259" y="537"/>
      <point x="273" y="496"/>
      <point x="276" y="431" type="curve" smooth="yes"/>
      <point x="276" y="422"/>
      <point x="276" y="413"/>
      <point x="276" y="404" type="curve"/>
      <point x="292" y="404"/>
      <point x="301" y="416"/>
      <point x="301" y="444" type="curve" smooth="yes"/>
      <point x="301" y="494"/>
      <point x="272" y="547"/>
      <point x="205" y="547" type="curve" smooth="yes"/>
      <point x="139" y="547"/>
      <point x="78" y="495"/>
      <point x="78" y="408" type="curve" smooth="yes"/>
      <point x="78" y="336"/>
      <point x="120" y="302"/>
      <point x="165" y="265" type="curve" smooth="yes"/>
      <point x="217" y="222"/>
      <point x="233" y="182"/>
      <point x="233" y="132" type="curve" smooth="yes"/>
      <point x="233" y="50"/>
      <point x="191" y="0"/>
      <point x="130" y="0" type="curve" smooth="yes"/>
      <point x="67" y="0"/>
      <point x="44" y="51"/>
      <point x="40" y="122" type="curve" smooth="yes"/>
      <point x="39" y="131"/>
      <point x="39" y="140"/>
      <point x="39" y="149" type="curve"/>
      <point x="29" y="149"/>
      <point x="14" y="139"/>
      <point x="14" y="104" type="curve" smooth="yes"/>
      <point x="14" y="53"/>
      <point x="47" y="-10"/>
    </contour>
  </outline>
</glyph>
<glyph name="Eng.alt1" format="2">
  <advance width="565"/>
  <anchor x="188" y="-240" name="bottom"/>
  <anchor x="391" y="714" name="top"/>
  <outline>
    <contour>
      <point x="278" y="-240" type="curve" smooth="yes"/>
      <point x="351" y="-240"/>
      <point x="398" y="-198"/>
      <point x="438" y="-10" type="curve" smooth="yes"/>
      <point x="530" y="427" type="line" smooth="yes"/>
      <point x="542" y="485"/>
      <point x="550" y="522"/>
      <point x="550" y="563" type="curve" smooth="yes"/>
      <point x="550" y="662"/>
      <point x="501" y="721"/>
      <point x="414" y="721" type="curve" smooth="yes"/>
      <point x="324" y="721"/>
      <point x="245" y="659"/>
      <point x="209" y="555" type="curve"/>
      <point x="207" y="555" type="line"/>
      <point x="238" y="714" type="line"/>
      <point x="134" y="714" type="line"/>
      <point x="132" y="704" type="line"/>
      <point x="140" y="704" type="line" smooth="yes"/>
      <point x="189" y="704"/>
      <point x="198" y="699"/>
      <point x="198" y="666" type="curve" smooth="yes"/>
      <point x="198" y="651"/>
      <point x="196" y="632"/>
      <point x="193" y="620" type="curve" smooth="yes"/>
      <point x="82" y="98" type="line" smooth="yes"/>
      <point x="66" y="21"/>
      <point x="57" y="10"/>
      <point x="7" y="10" type="curve" smooth="yes"/>
      <point x="-17" y="10" type="line"/>
      <point x="-19" y="0" type="line"/>
      <point x="170" y="0" type="line"/>
      <point x="172" y="10" type="line"/>
      <point x="148" y="10" type="line" smooth="yes"/>
      <point x="114" y="10"/>
      <point x="102" y="15"/>
      <point x="102" y="43" type="curve" smooth="yes"/>
      <point x="102" y="54"/>
      <point x="104" y="70"/>
      <point x="110" y="98" type="curve" smooth="yes"/>
      <point x="191" y="469" type="line" smooth="yes"/>
      <point x="218" y="591"/>
      <point x="284" y="706"/>
      <point x="404" y="706" type="curve" smooth="yes"/>
      <point x="487" y="706"/>
      <point x="522" y="650"/>
      <point x="522" y="569" type="curve" smooth="yes"/>
      <point x="522" y="538"/>
      <point x="517" y="502"/>
      <point x="504" y="439" type="curve" smooth="yes"/>
      <point x="410" y="-10" type="line" smooth="yes"/>
      <point x="377" y="-166"/>
      <point x="344" y="-230"/>
      <point x="279" y="-230" type="curve" smooth="yes"/>
      <point x="267" y="-230"/>
      <point x="247" y="-228"/>
      <point x="234" y="-225" type="curve"/>
      <point x="232" y="-235" type="line"/>
      <point x="245" y="-238"/>
      <point x="262" y="-240"/>
    </contour>
  </outline>
</glyph>
<glyph name="a.ss01" format="2">
  <advance width="400"/>
  <anchor x="129" y="0" name="bottom"/>
  <anchor x="243" y="536" name="top"/>
  <anchor x="410" y="536" name="topright"/>
  <outline>
    <contour>
      <point x="102" y="-5" type="curve" smooth="yes"/>
      <point x="169" y="-5"/>
      <point x="215" y="43"/>
      <point x="248" y="106" type="curve"/>
      <point x="250" y="106" type="line"/>
      <point x="250" y="14"/>
      <point x="267" y="-4"/>
      <point x="296" y="-4" type="curve" smooth="yes"/>
      <point x="314" y="-4"/>
      <point x="322" y="4"/>
      <point x="331" y="13" type="curve"/>
      <point x="324" y="19" type="line"/>
      <point x="318" y="11"/>
      <point x="311" y="6"/>
      <point x="300" y="6" type="curve" smooth="yes"/>
      <point x="284" y="6"/>
      <point x="277" y="25"/>
      <point x="277" y="67" type="curve" smooth="yes"/>
      <point x="277" y="98"/>
      <point x="284" y="135"/>
      <point x="290" y="165" type="curve" smooth="yes"/>
      <point x="334" y="371" type="line" smooth="yes"/>
      <point x="341" y="402"/>
      <point x="344" y="429"/>
      <point x="344" y="451" type="curve" smooth="yes"/>
      <point x="344" y="515"/>
      <point x="312" y="547"/>
      <point x="245" y="547" type="curve" smooth="yes"/>
      <point x="162" y="547"/>
      <point x="110" y="492"/>
      <point x="110" y="423" type="curve" smooth="yes"/>
      <point x="110" y="408"/>
      <point x="116" y="400"/>
      <point x="125" y="400" type="curve"/>
      <point x="143" y="498"/>
      <point x="179" y="537"/>
      <point x="242" y="537" type="curve" smooth="yes"/>
      <point x="289" y="537"/>
      <point x="316" y="512"/>
      <point x="316" y="448" type="curve" smooth="yes"/>
      <point x="316" y="428"/>
      <point x="313" y="405"/>
      <point x="307" y="376" type="curve" smooth="yes"/>
      <point x="292" y="305" type="line"/>
      <point x="228" y="302" type="line" smooth="yes"/>
      <point x="87" y="295"/>
      <point x="13" y="232"/>
      <point x="13" y="96" type="curve" smooth="yes"/>
      <point x="13" y="31"/>
      <point x="45" y="-5"/>
    </contour>
    <contour>
      <point x="105" y="5" type="curve" smooth="yes"/>
      <point x="61" y="5"/>
      <point x="41" y="41"/>
      <point x="41" y="97" type="curve" smooth="yes"/>
      <point x="41" y="216"/>
      <point x="102" y="285"/>
      <point x="226" y="291" type="curve" smooth="yes"/>
      <point x="289" y="294" type="line"/>
      <point x="268" y="197" type="line" smooth="yes"/>
      <point x="245" y="89"/>
      <point x="180" y="5"/>
    </contour>
  </outline>
</glyph>
<glyph name="ae.sc" format="2">
  <advance width="566"/>
  <anchor x="227" y="0" name="bottom"/>
  <anchor x="429" y="571" name="top"/>
  <outline>
    <contour>
      <point x="-63" y="0" type="line"/>
      <point x="87" y="0" type="line"/>
      <point x="89" y="10" type="line"/>
      <point x="71" y="10" type="line" smooth="yes"/>
      <point x="25" y="10"/>
      <point x="22" y="14"/>
      <point x="22" y="33" type="curve" smooth="yes"/>
      <point x="22" y="43"/>
      <point x="31" y="59"/>
      <point x="43" y="79" type="curve" smooth="yes"/>
      <point x="116" y="199" type="line"/>
      <point x="278" y="199" type="line"/>
      <point x="251" y="71" type="line" smooth="yes"/>
      <point x="239" y="15"/>
      <point x="232" y="10"/>
      <point x="185" y="10" type="curve" smooth="yes"/>
      <point x="175" y="10" type="line"/>
      <point x="173" y="0" type="line"/>
      <point x="491" y="0" type="line"/>
      <point x="523" y="128" type="line"/>
      <point x="513" y="128" type="line"/>
      <point x="501" y="81" type="line" smooth="yes"/>
      <point x="483" y="12"/>
      <point x="475" y="10"/>
      <point x="425" y="10" type="curve" smooth="yes"/>
      <point x="266" y="10" type="line"/>
      <point x="326" y="295" type="line"/>
      <point x="489" y="295" type="line"/>
      <point x="491" y="305" type="line"/>
      <point x="328" y="305" type="line"/>
      <point x="383" y="561" type="line"/>
      <point x="520" y="561" type="line" smooth="yes"/>
      <point x="562" y="561"/>
      <point x="568" y="559"/>
      <point x="568" y="526" type="curve" smooth="yes"/>
      <point x="568" y="512"/>
      <point x="565" y="488"/>
      <point x="556" y="443" type="curve"/>
      <point x="566" y="443" type="line"/>
      <point x="590" y="571" type="line"/>
      <point x="253" y="571" type="line"/>
      <point x="252" y="563" type="line"/>
      <point x="327" y="561" type="line"/>
      <point x="26" y="71" type="line" smooth="yes"/>
      <point x="-9" y="14"/>
      <point x="-15" y="10"/>
      <point x="-50" y="10" type="curve" smooth="yes"/>
      <point x="-61" y="10" type="line"/>
    </contour>
    <contour>
      <point x="124" y="209" type="line"/>
      <point x="255" y="426" type="line" smooth="yes"/>
      <point x="281" y="468"/>
      <point x="318" y="528"/>
      <point x="337" y="561" type="curve"/>
      <point x="355" y="561" type="line"/>
      <point x="280" y="209" type="line"/>
    </contour>
  </outline>
</glyph>
<glyph name="braceright.sc" format="2">
  <advance width="223"/>
  <outline>
    <contour>
      <point x="-67" y="-106" type="line"/>
      <point x="-58" y="-106" type="line" smooth="yes"/>
      <point x="29" y="-106"/>
      <point x="41" y="-74"/>
      <point x="58" y="7" type="curve" smooth="yes"/>
      <point x="88" y="147" type="line" smooth="yes"/>
      <point x="103" y="219"/>
      <point x="130" y="242"/>
      <point x="208" y="246" type="curve"/>
      <point x="210" y="256" type="line"/>
      <point x="143" y="259"/>
      <point x="129" y="275"/>
      <point x="129" y="324" type="curve" smooth="yes"/>
      <point x="129" y="335"/>
      <point x="132" y="352"/>
      <point x="135" y="368" type="curve" smooth="yes"/>
      <point x="161" y="489" type="line" smooth="yes"/>
      <point x="164" y="505"/>
      <point x="167" y="521"/>
      <point x="167" y="534" type="curve" smooth="yes"/>
      <point x="167" y="583"/>
      <point x="141" y="608"/>
      <point x="94" y="608" type="curve" smooth="yes"/>
      <point x="82" y="608" type="line"/>
      <point x="80" y="598" type="line"/>
      <point x="92" y="598" type="line" smooth="yes"/>
      <point x="124" y="598"/>
      <point x="139" y="584"/>
      <point x="139" y="544" type="curve" smooth="yes"/>
      <point x="139" y="531"/>
      <point x="137" y="504"/>
      <point x="134" y="489" type="curve" smooth="yes"/>
      <point x="108" y="369" type="line" smooth="yes"/>
      <point x="104" y="351"/>
      <point x="102" y="336"/>
      <point x="102" y="324" type="curve" smooth="yes"/>
      <point x="102" y="275"/>
      <point x="134" y="257"/>
      <point x="180" y="253" type="curve"/>
      <point x="180" y="251" type="line"/>
      <point x="118" y="245"/>
      <point x="77" y="218"/>
      <point x="62" y="149" type="curve" smooth="yes"/>
      <point x="30" y="-2" type="line" smooth="yes"/>
      <point x="12" y="-86"/>
      <point x="-3" y="-96"/>
      <point x="-61" y="-96" type="curve" smooth="yes"/>
      <point x="-65" y="-96" type="line"/>
    </contour>
  </outline>
</glyph>
<glyph name="caroncommaaccent" format="2">
  <advance width="378"/>
  <anchor x="121" y="536" name="_topright"/>
  <outline>
    <contour>
      <point x="161" y="600" type="line"/>
      <point x="171" y="600" type="line"/>
      <point x="191" y="638"/>
      <point x="223" y="698"/>
      <point x="245" y="749" type="curve"/>
      <point x="246" y="760" type="line"/>
      <point x="216" y="760" type="line"/>
      <point x="199" y="712"/>
      <point x="179" y="651"/>
      <point x="162" y="609" type="curve"/>
    </contour>
  </outline>
</glyph>
<glyph name="f.ss02" format="2">
  <advance width="190"/>
  <anchor x="32" y="0" name="bottom"/>
  <anchor x="266" y="770" name="top"/>
  <anchor x="381" y="770" name="topright"/>
  <outline>
    <contour>
      <point x="15" y="0" type="line"/>
      <point x="43" y="0" type="line"/>
      <point x="155" y="526" type="line"/>
      <point x="227" y="526" type="line"/>
      <point x="229" y="536" type="line"/>
      <point x="157" y="536" type="line"/>
      <point x="181" y="646" type="line" smooth="yes"/>
      <point x="195" y="708"/>
      <point x="216" y="760"/>
      <point x="264" y="760" type="curve" smooth="yes"/>
      <point x="298" y="760"/>
      <point x="310" y="734"/>
      <point x="307" y="658" type="curve"/>
      <point x="323" y="658"/>
      <point x="334" y="670"/>
      <point x="334" y="697" type="curve" smooth="yes"/>
      <point x="334" y="737"/>
      <point x="312" y="770"/>
      <point x="264" y="770" type="curve" smooth="yes"/>
      <point x="202" y="770"/>
      <point x="169" y="715"/>
      <point x="150" y="630" type="curve" smooth="yes"/>
      <point x="129" y="536" type="line"/>
      <point x="60" y="531" type="line"/>
      <point x="59" y="526" type="line"/>
      <point x="127" y="526" type="line"/>
    </contour>
  </outline>
</glyph>
<glyph name="five.lf" format="2">
  <advance width="391"/>
  <outline>
    <contour>
      <point x="137" y="-10" type="curve" smooth="yes"/>
      <point x="258" y="-10"/>
      <point x="330" y="107"/>
      <point x="330" y="243" type="curve" smooth="yes"/>
      <point x="330" y="360"/>
      <point x="277" y="421"/>
      <point x="201" y="421" type="curve" smooth="yes"/>
      <point x="164" y="421"/>
      <point x="125" y="407"/>
      <point x="105" y="395" type="curve"/>
      <point x="189" y="689" type="line"/>
      <point x="359" y="689" type="line" smooth="yes"/>
      <point x="374" y="689"/>
      <point x="379" y="684"/>
      <point x="379" y="668" type="curve" smooth="yes"/>
      <point x="379" y="653"/>
      <point x="375" y="635"/>
      <point x="370" y="604" type="curve"/>
      <point x="380" y="604" type="line"/>
      <point x="405" y="714" type="line"/>
      <point x="183" y="714" type="line"/>
      <point x="88" y="385" type="line"/>
      <point x="98" y="383" type="line"/>
      <point x="122" y="398"/>
      <point x="157" y="409"/>
      <point x="189" y="409" type="curve" smooth="yes"/>
      <point x="271" y="409"/>
      <point x="302" y="334"/>
      <point x="302" y="238" type="curve" smooth="yes"/>
      <point x="302" y="93"/>
      <point x="231" y="0"/>
      <point x="139" y="0" type="curve" smooth="yes"/>
      <point x="60" y="0"/>
      <point x="28" y="70"/>
      <point x="32" y="148" type="curve"/>
      <point x="11" y="148"/>
      <point x="3" y="137"/>
      <point x="3" y="115" type="curve" smooth="yes"/>
      <point x="3" y="67"/>
      <point x="39" y="-10"/>
    </contour>
  </outline>
</glyph>
<glyph name="imoddotless" format="2">
  <advance width="131"/>
  <anchor x="63" y="287" name="bottom"/>
  <anchor x="133" y="609" name="top"/>
  <anchor x="182" y="609" name="topright"/>
  <outline>
    <contour>
      <point x="95" y="281" type="curve" smooth="yes"/>
      <point x="113" y="281"/>
      <point x="125" y="290"/>
      <point x="139" y="306" type="curve"/>
      <point x="135" y="310" type="line"/>
      <point x="122" y="294"/>
      <point x="111" y="287"/>
      <point x="98" y="287" type="curve" smooth="yes"/>
      <point x="82" y="287"/>
      <point x="77" y="300"/>
      <point x="77" y="323" type="curve" smooth="yes"/>
      <point x="77" y="331"/>
      <point x="78" y="346"/>
      <point x="83" y="370" type="curve" smooth="yes"/>
      <point x="137" y="609" type="line"/>
      <point x="72" y="609" type="line"/>
      <point x="71" y="603" type="line"/>
      <point x="80" y="603" type="line" smooth="yes"/>
      <point x="106" y="603"/>
      <point x="113" y="597"/>
      <point x="113" y="587" type="curve" smooth="yes"/>
      <point x="113" y="584"/>
      <point x="112" y="579"/>
      <point x="111" y="574" type="curve" smooth="yes"/>
      <point x="71" y="396" type="line" smooth="yes"/>
      <point x="66" y="373"/>
      <point x="59" y="346"/>
      <point x="59" y="325" type="curve" smooth="yes"/>
      <point x="59" y="297"/>
      <point x="71" y="281"/>
    </contour>
  </outline>
</glyph>
<glyph name="n.sc" format="2">
  <advance width="430"/>
  <anchor x="166" y="0" name="bottom"/>
  <anchor x="274" y="571" name="top"/>
  <anchor x="503" y="571" name="topright"/>
  <outline>
    <contour>
      <point x="-44" y="0" type="line"/>
      <point x="114" y="0" type="line"/>
      <point x="117" y="10" type="line"/>
      <point x="84" y="10" type="line" smooth="yes"/>
      <point x="57" y="10"/>
      <point x="46" y="13"/>
      <point x="46" y="32" type="curve" smooth="yes"/>
      <point x="46" y="42"/>
      <point x="48" y="58"/>
      <point x="53" y="81" type="curve" smooth="yes"/>
      <point x="149" y="524" type="line"/>
      <point x="288" y="0" type="line"/>
      <point x="298" y="0" type="line"/>
      <point x="404" y="514" type="line" smooth="yes"/>
      <point x="413" y="558"/>
      <point x="415" y="561"/>
      <point x="449" y="561" type="curve" smooth="yes"/>
      <point x="488" y="561" type="line"/>
      <point x="491" y="571" type="line"/>
      <point x="329" y="571" type="line"/>
      <point x="326" y="561" type="line"/>
      <point x="361" y="561" type="line" smooth="yes"/>
      <point x="394" y="561"/>
      <point x="398" y="557"/>
      <point x="398" y="542" type="curve" smooth="yes"/>
      <point x="398" y="532"/>
      <point x="394" y="516"/>
      <point x="392" y="504" type="curve" smooth="yes"/>
      <point x="299" y="49" type="line"/>
      <point x="164" y="571" type="line"/>
      <point x="77" y="571" type="line"/>
      <point x="75" y="561" type="line"/>
      <point x="111" y="561" type="line" smooth="yes"/>
      <point x="131" y="561"/>
      <point x="138" y="549"/>
      <point x="138" y="532" type="curve" smooth="yes"/>
      <point x="138" y="519"/>
      <point x="134" y="502"/>
      <point x="131" y="488" type="curve" smooth="yes"/>
      <point x="42" y="81" type="line" smooth="yes"/>
      <point x="27" y="13"/>
      <point x="26" y="10"/>
      <point x="-12" y="10" type="curve" smooth="yes"/>
      <point x="-41" y="10" type="line"/>
    </contour>
  </outline>
</glyph>
<glyph name="one.tosf" format="2">
  <advance width="424"/>
  <outline>
    <contour>
      <point x="143" y="0" type="line"/>
      <point x="172" y="0" type="line"/>
      <point x="285" y="536" type="line"/>
      <point x="275" y="536" type="line"/>
      <point x="234" y="503" type="line" smooth="yes"/>
      <point x="179" y="459"/>
      <point x="146" y="456"/>
      <point x="113" y="456" type="curve"/>
      <point x="114" y="442"/>
      <point x="120" y="431"/>
      <point x="137" y="431" type="curve" smooth="yes"/>
      <point x="162" y="431"/>
      <point x="185" y="449"/>
      <point x="250" y="503" type="curve"/>
    </contour>
  </outline>
</glyph>
<glyph name="three.lf" format="2">
  <advance width="424"/>
  <outline>
    <contour>
      <point x="145" y="-10" type="curve" smooth="yes"/>
      <point x="264" y="-10"/>
      <point x="342" y="82"/>
      <point x="342" y="220" type="curve" smooth="yes"/>
      <point x="342" y="325"/>
      <point x="297" y="368"/>
      <point x="245" y="377" type="curve"/>
      <point x="335" y="389"/>
      <point x="398" y="475"/>
      <point x="398" y="577" type="curve" smooth="yes"/>
      <point x="398" y="667"/>
      <point x="349" y="724"/>
      <point x="275" y="724" type="curve" smooth="yes"/>
      <point x="186" y="724"/>
      <point x="123" y="640"/>
      <point x="123" y="575" type="curve" smooth="yes"/>
      <point x="123" y="547"/>
      <point x="135" y="539"/>
      <point x="147" y="539" type="curve"/>
      <point x="155" y="643"/>
      <point x="192" y="714"/>
      <point x="271" y="714" type="curve" smooth="yes"/>
      <point x="339" y="714"/>
      <point x="369" y="662"/>
      <point x="369" y="580" type="curve" smooth="yes"/>
      <point x="369" y="451"/>
      <point x="296" y="382"/>
      <point x="212" y="382" type="curve" smooth="yes"/>
      <point x="175" y="382" type="line"/>
      <point x="172" y="372" type="line"/>
      <point x="206" y="372" type="line" smooth="yes"/>
      <point x="276" y="372"/>
      <point x="313" y="334"/>
      <point x="313" y="225" type="curve" smooth="yes"/>
      <point x="313" y="77"/>
      <point x="245" y="0"/>
      <point x="148" y="0" type="curve" smooth="yes"/>
      <point x="66" y="0"/>
      <point x="32" y="55"/>
      <point x="36" y="135" type="curve"/>
      <point x="21" y="135"/>
      <point x="9" y="124"/>
      <point x="9" y="98" type="curve" smooth="yes"/>
      <point x="9" y="49"/>
      <point x="50" y="-10"/>
    </contour>
  </outline>
</glyph>
<glyph name="tildeacute" format="2">
  <advance width="467"/>
  <outline>
    <contour>
      <point x="169" y="608" type="curve"/>
      <point x="181" y="608" type="line"/>
      <point x="188" y="629"/>
      <point x="201" y="654"/>
      <point x="230" y="654" type="curve" smooth="yes"/>
      <point x="267" y="654"/>
      <point x="281" y="611"/>
      <point x="326" y="611" type="curve" smooth="yes"/>
      <point x="363" y="611"/>
      <point x="383" y="642"/>
      <point x="393" y="672" type="curve"/>
      <point x="382" y="672" type="line"/>
      <point x="375" y="651"/>
      <point x="361" y="631"/>
      <point x="335" y="631" type="curve" smooth="yes"/>
      <point x="298" y="631"/>
      <point x="285" y="674"/>
      <point x="241" y="674" type="curve" smooth="yes"/>
      <point x="201" y="674"/>
      <point x="179" y="640"/>
    </contour>
    <contour>
      <point x="267" y="711" type="line"/>
      <point x="276" y="711" type="line"/>
      <point x="317" y="754"/>
      <point x="361" y="803"/>
      <point x="384" y="839" type="curve"/>
      <point x="385" y="847" type="line"/>
      <point x="355" y="847" type="line"/>
      <point x="329" y="800"/>
      <point x="303" y="761"/>
      <point x="269" y="719" type="curve"/>
    </contour>
  </outline>
</glyph>
<glyph name="two.lf" format="2">
  <advance width="424"/>
  <outline>
    <contour>
      <point x="-3" y="0" type="line"/>
      <point x="310" y="0" type="line"/>
      <point x="340" y="130" type="line"/>
      <point x="328" y="130" type="line"/>
      <point x="315" y="82" type="line" smooth="yes"/>
      <point x="301" y="31"/>
      <point x="294" y="25"/>
      <point x="250" y="25" type="curve" smooth="yes"/>
      <point x="22" y="25" type="line"/>
      <point x="216" y="242" type="line" smooth="yes"/>
      <point x="337" y="377"/>
      <point x="395" y="471"/>
      <point x="395" y="575" type="curve" smooth="yes"/>
      <point x="395" y="666"/>
      <point x="351" y="724"/>
      <point x="265" y="724" type="curve" smooth="yes"/>
      <point x="160" y="724"/>
      <point x="114" y="637"/>
      <point x="114" y="589" type="curve" smooth="yes"/>
      <point x="114" y="570"/>
      <point x="121" y="562"/>
      <point x="139" y="562" type="curve"/>
      <point x="144" y="631"/>
      <point x="173" y="714"/>
      <point x="265" y="714" type="curve" smooth="yes"/>
      <point x="334" y="714"/>
      <point x="369" y="667"/>
      <point x="369" y="571" type="curve" smooth="yes"/>
      <point x="369" y="476"/>
      <point x="334" y="394"/>
      <point x="207" y="253" type="curve" smooth="yes"/>
      <point x="7" y="30" type="line"/>
    </contour>
  </outline>
</glyph>
